<svg xmlns="http://www.w3.org/2000/svg" viewBox="0 0 209.8 158.13">
  <title>Asset 1</title>
  <g id="Layer_2" data-name="Layer 2">
    <g id="Layer_1-2" data-name="Layer 1">
      <g>
        <path d="M35.21,107.93q-2.66,5.25-4.59,10.17a8.59,8.59,0,0,1-4.49,16.55c-1,8,.45,14.45,4.6,18.59,3.32,3.32,8.1,4.89,14,4.89,15,0,37.09-10.21,60.19-27.79-5.25-4-10.54-8.36-15.82-13.08-20.51-1.14-39.07-4.47-53.87-9.32M165.09,0c-15,0-37.09,10.21-60.19,27.79,5.25,4,10.54,8.36,15.82,13.08,20.51,1.14,39.07,4.47,53.87,9.32,10.27-20.28,12.6-37.19,4.48-45.31C175.76,1.57,171,0,165.09,0" style="fill: #f99b1c"/>
        <path d="M174.59,107.93c-14.81,4.85-33.36,8.18-53.87,9.32-5.28,4.72-10.57,9.09-15.82,13.08,23.1,17.59,45.21,27.79,60.19,27.79,5.88,0,10.67-1.57,14-4.89,8.12-8.12,5.79-25-4.48-45.31M44.71,0C38.82,0,34,1.57,30.72,4.89c-8.12,8.12-5.79,25,4.48,45.31C50,45.35,68.58,42,89.08,40.88c5.28-4.72,10.57-9.09,15.82-13.08q-4.49-3.41-8.91-6.46a8.58,8.58,0,0,1-14.56-9.09C67.29,4.35,54.48,0,44.71,0" style="fill: #e66825"/>
        <path d="M89.08,117.25c5.28,4.72,10.57,9.09,15.82,13.08,5.25-4,10.54-8.36,15.82-13.08-5.16.29-10.44.44-15.82.44s-10.66-.15-15.82-.44M104.9,27.79c-5.25,4-10.54,8.36-15.82,13.08q7.74-.43,15.82-.44c5.37,0,10.66.15,15.82.44-5.28-4.72-10.57-9.09-15.82-13.08" style="fill: #e34d25"/>
        <path d="M174.59,50.2a191.13,191.13,0,0,1-18.42,28.87,191.13,191.13,0,0,1,18.42,28.87c21.6-7.07,35.21-17.39,35.21-28.87,0-5.86-3.55-11.42-9.89-16.4A8.58,8.58,0,0,1,185,54.15c-3.23-1.41-6.72-2.73-10.46-3.95m-139.38,0C13.61,57.27,0,67.58,0,79.06s13.61,21.79,35.21,28.87A191.13,191.13,0,0,1,53.63,79.06,191.13,191.13,0,0,1,35.21,50.2" style="fill: #febe10"/>
        <path d="M53.63,79.06a191.13,191.13,0,0,0-18.42,28.87c14.8,4.85,33.37,8.18,53.87,9.32q-5.77-5.17-11.49-10.88a271.16,271.16,0,0,1-24-27.31m67.09-38.19q5.77,5.17,11.49,10.88a271.13,271.13,0,0,1,24,27.31A191.13,191.13,0,0,0,174.59,50.2c-14.81-4.85-33.36-8.18-53.87-9.32" style="fill: #f58120"/>
        <path d="M156.17,79.06a271.13,271.13,0,0,1-24,27.31q-5.7,5.7-11.49,10.88c20.51-1.14,39.07-4.47,53.87-9.32a191.13,191.13,0,0,0-18.42-28.87M89.08,40.88C68.58,42,50,45.35,35.21,50.2A191.13,191.13,0,0,0,53.63,79.06a271.15,271.15,0,0,1,24-27.31q5.7-5.7,11.49-10.88" style="fill: #e45925"/>
        <path d="M104.9,40.44q-8.07,0-15.82.44Q83.31,46,77.59,51.75a271.15,271.15,0,0,0-24,27.31,271.16,271.16,0,0,0,24,27.31q5.7,5.7,11.49,10.88,7.74.43,15.82.44c5.37,0,10.66-.15,15.82-.44q5.77-5.17,11.49-10.88a271.13,271.13,0,0,0,24-27.31,271.13,271.13,0,0,0-24-27.31q-5.7-5.7-11.49-10.88c-5.16-.29-10.44-.44-15.82-.44" style="fill: #e34326"/>
        <path d="M27.94,117.67a8.58,8.58,0,0,0-1.81,17,68.6,68.6,0,0,1,4.49-16.55,8.58,8.58,0,0,0-2.67-.42" style="fill: #e66825"/>
        <path d="M30.61,118.1a68.6,68.6,0,0,0-4.49,16.55,8.58,8.58,0,0,0,4.49-16.55" style="fill: #e34d25"/>
        <path d="M88.79,8.07a8.58,8.58,0,0,0-7.37,4.18C86.15,14.89,91,17.93,96,21.34A8.58,8.58,0,0,0,88.79,8.07" style="fill: #febe10"/>
        <path d="M81.43,12.25A8.58,8.58,0,0,0,96,21.34c-5-3.41-9.83-6.45-14.56-9.09" style="fill: #e45925"/>
        <path d="M192.78,49.3A8.58,8.58,0,0,0,185,54.15a68.56,68.56,0,0,1,14.85,8.52,8.58,8.58,0,0,0-7.12-13.37" style="fill: #f99b1c"/>
        <path d="M185,54.15a8.58,8.58,0,0,0,14.85,8.52A68.56,68.56,0,0,0,185,54.15" style="fill: #f58120"/>
        <path d="M113.33,90.17c0-4.49-4-5.58-11.26-7.28-7.77-1.79-16.35-5.48-16.35-15.45,0-8.87,7.78-16,19.54-16,8.27,0,17.84,2.39,17.84,5.78a3.53,3.53,0,0,1-.3,1.4l-1.4,3.09a2.84,2.84,0,0,1-2.49,1.6,2.15,2.15,0,0,1-1.1-.2,36,36,0,0,0-12.46-2.39c-4.88,0-8.57,2.79-8.57,6,0,9.37,27.91,4.29,27.91,22.93,0,9.37-8.47,16.55-20.83,16.55-8.57,0-19-2.89-19-6.38a3.44,3.44,0,0,1,.3-1.3l1.59-3.39a2.73,2.73,0,0,1,2.49-1.4,4.23,4.23,0,0,1,1.1.2,39,39,0,0,0,13.76,3C110.24,96.85,113.33,93.46,113.33,90.17Z" style="fill: #fff"/>
      </g>
    </g>
  </g>
</svg>
