<?xml version="1.0" encoding="UTF-8" standalone="no"?>
<svg
   xmlns:dc="http://purl.org/dc/elements/1.1/"
   xmlns:cc="http://creativecommons.org/ns#"
   xmlns:rdf="http://www.w3.org/1999/02/22-rdf-syntax-ns#"
   xmlns:svg="http://www.w3.org/2000/svg"
   xmlns="http://www.w3.org/2000/svg"
   viewBox="0 0 1056 816"
   height="816"
   width="1056"
   xml:space="preserve"
   id="svg2"
   version="1.1"><metadata
     id="metadata8"><rdf:RDF><cc:Work
         rdf:about=""><dc:format>image/svg+xml</dc:format><dc:type
           rdf:resource="http://purl.org/dc/dcmitype/StillImage" /></cc:Work></rdf:RDF></metadata><defs
     id="defs6"><clipPath
       id="clipPath18"
       clipPathUnits="userSpaceOnUse"><path
         id="path16"
         d="M 0,612 H 792 V 0 H 0 Z" /></clipPath></defs><g
     transform="matrix(1.3333333,0,0,-1.3333333,0,816)"
     id="g10"><g
       id="g12"><g
         clip-path="url(#clipPath18)"
         id="g14"><g
           transform="translate(347.1285,312.2345)"
           id="g20"><path
             id="path22"
             style="fill:#374898;fill-opacity:1;fill-rule:nonzero;stroke:none"
             d="m 0,0 c -6.052,1.763 -11.279,3.286 -11.279,7.129 0,3.324 4.023,6.028 8.967,6.028 4.393,0 10.213,-1.115 13.792,-2.633 0.611,-0.306 1.082,-0.306 1.581,-0.306 1.45,0 2.824,0.874 3.513,2.253 l 1.596,3.534 c 0.278,0.7 0.391,1.238 0.391,1.862 0,4.769 -12.186,7.309 -20.985,7.309 -13.275,0 -22.909,-7.97 -22.909,-18.952 0,-9.313 6.255,-15.284 19.12,-18.253 8.232,-1.917 12.19,-3.038 12.19,-7.518 0,-3.389 -3.351,-6.819 -9.758,-6.819 -5.222,0 -11.592,1.725 -15.415,3.368 l -0.212,0.054 c -0.381,0.1 -0.743,0.195 -1.215,0.195 -1.3,0 -2.89,-0.628 -3.508,-2.015 l -1.825,-3.882 c -0.272,-0.68 -0.394,-1.22 -0.394,-1.752 0,-4.876 13.233,-7.987 22.342,-7.987 14.125,0 24.378,8.208 24.378,19.516 C 20.37,-5.935 9.075,-2.645 0,0" /></g><g
           transform="translate(424.897,292.3625)"
           id="g24"><path
             id="path26"
             style="fill:#374898;fill-opacity:1;fill-rule:nonzero;stroke:none"
             d="m 0,0 c -1.607,1.336 -4.176,1.364 -5.603,0.223 -4.825,-4.064 -9.324,-6.039 -13.756,-6.039 -9.791,0 -15.637,7.155 -15.637,19.14 0,11.736 5.992,19.027 15.637,19.027 4.34,0 8.84,-2.013 13.854,-6.222 0.68,-0.409 1.719,-0.673 2.648,-0.673 1.2,0 2.151,0.368 2.948,1.169 l 3.237,3.799 c 0.653,0.653 1.012,1.605 1.012,2.68 0,1.149 -0.44,2.221 -1.264,3.045 -6.6,5.988 -13.938,8.899 -22.435,8.899 -18.661,0 -29.803,-11.859 -29.803,-31.724 0,-19.936 11.142,-31.837 29.803,-31.837 8.453,0 15.827,2.909 22.573,8.925 0.726,0.725 1.126,1.717 1.126,2.792 0,1.813 -1.725,3.79 -3.248,5.533 C 0.737,-0.856 0.396,-0.466 0,0" /></g><g
           transform="translate(460.9187,285.8681)"
           id="g28"><path
             id="path30"
             style="fill:#374898;fill-opacity:1;fill-rule:nonzero;stroke:none"
             d="m 0,0 c -6.22,0 -9.645,2.743 -9.645,7.724 0,6.426 6.944,9.419 21.852,9.419 h 1.508 V 12.698 C 13.715,5.065 5.461,0 0,0 m 3.956,51.543 c -11.071,0 -23.021,-3.011 -23.021,-7.875 0,-0.397 0.106,-0.693 0.199,-0.954 l 1.802,-4.357 c 0.593,-1.181 1.773,-1.885 3.161,-1.885 0.655,0 1.688,0.308 3.253,0.773 3.048,0.908 7.653,2.279 12.684,2.279 7.601,0 11.454,-3.664 11.454,-10.889 V 27.467 H 10.85 c -16.085,0 -34.549,-2.347 -34.549,-20.647 0,-10.916 8.92,-18.839 21.212,-18.839 6.462,0 13.517,3.64 16.767,8.566 v -3.064 c 0,-2.441 1.657,-4.145 4.031,-4.145 h 5.313 c 2.298,0 4.032,1.684 4.032,3.918 v 33.57 c 0,18.224 -12.243,24.717 -23.7,24.717" /></g><g
           transform="translate(538.2653,281.2907)"
           id="g32"><path
             id="path34"
             style="fill:#374898;fill-opacity:1;fill-rule:nonzero;stroke:none"
             d="m 0,0 -1.36,3.964 c -0.674,1.891 -2.748,3.134 -4.81,2.489 -1.154,-0.419 -4.128,-1.084 -7.202,-1.084 -4.576,0 -6.707,2.49 -6.707,7.836 v 30.331 h 14.845 c 2.124,0 3.918,1.794 3.918,3.918 v 3.391 c 0,2.161 -1.757,3.919 -3.918,3.919 H -20.079 V 66.67 c 0,2.16 -1.757,3.918 -3.918,3.918 H -30.1 c -2.261,0 -4.032,-1.721 -4.032,-3.918 V 54.764 h -5.238 c -2.261,0 -4.031,-1.721 -4.031,-3.919 v -3.391 c 0,-2.124 1.845,-3.918 4.031,-3.918 h 5.238 V 12.867 c 0,-12.907 7.526,-20.309 20.647,-20.309 5.469,0 9.499,1.609 11.392,2.557 C -0.306,-4.062 0.578,-2.024 0,0" /></g><g
           transform="translate(587.4044,281.2907)"
           id="g36"><path
             id="path38"
             style="fill:#374898;fill-opacity:1;fill-rule:nonzero;stroke:none"
             d="m 0,0 -1.36,3.964 c -0.676,1.891 -2.744,3.134 -4.81,2.489 -1.154,-0.419 -4.128,-1.084 -7.202,-1.084 -4.576,0 -6.707,2.49 -6.707,7.836 v 30.331 h 14.845 c 2.124,0 3.918,1.794 3.918,3.918 v 3.391 c 0,2.161 -1.757,3.919 -3.918,3.919 H -20.079 V 66.67 c 0,2.16 -1.757,3.918 -3.918,3.918 H -30.1 c -2.261,0 -4.032,-1.721 -4.032,-3.918 V 54.764 h -5.238 c -2.261,0 -4.031,-1.721 -4.031,-3.919 v -3.391 c 0,-2.124 1.845,-3.918 4.031,-3.918 h 5.238 V 12.867 c 0,-12.907 7.526,-20.309 20.647,-20.309 5.469,0 9.499,1.609 11.392,2.557 C -0.306,-4.062 0.578,-2.024 0,0" /></g><g
           transform="translate(624.0085,325.6179)"
           id="g40"><path
             id="path42"
             style="fill:#374898;fill-opacity:1;fill-rule:nonzero;stroke:none"
             d="M 0,0 C 6.385,0 13.245,-4.345 13.588,-13.865 H -15.048 C -13.481,-5.411 -7.651,0 0,0 m 27.769,-20.158 c 0,20.305 -10.039,31.951 -27.542,31.951 -18.175,0 -29.917,-12.63 -29.917,-32.176 0,-19.652 11.564,-31.386 30.934,-31.386 8.344,0 23.247,3.047 23.247,9.118 0,2.393 -2.054,6.97 -5.275,6.97 -0.499,0 -0.97,0 -1.588,-0.309 -4.454,-2.284 -10.974,-3.76 -16.611,-3.76 -8.606,0 -15.997,7.05 -16.512,15.561 h 39.233 c 2.185,0 4.031,1.847 4.031,4.031" /></g><g
           transform="translate(701.9521,335.7264)"
           id="g44"><path
             id="path46"
             style="fill:#374898;fill-opacity:1;fill-rule:nonzero;stroke:none"
             d="m 0,0 c -1.438,0.838 -4.282,1.685 -7.389,1.685 -6.367,0 -12.737,-3.537 -16.349,-9.043 h -0.191 v 3.767 c 0,2.198 -1.771,3.919 -4.031,3.919 h -5.539 c -2.161,0 -3.918,-1.758 -3.918,-3.919 v -53.011 c 0,-2.124 1.794,-3.918 3.918,-3.918 h 6.104 c 2.185,0 4.031,1.794 4.031,3.918 v 23.849 c 0,13.976 7.355,21.288 14.62,21.288 2.343,0 4.512,-0.986 5.674,-1.514 1.817,-0.836 4.203,0.686 4.785,3.026 l 1.018,5.206 C 3.114,-2.718 2.096,-0.976 0,0" /></g><g
           transform="translate(252.3289,385.3725)"
           id="g48"><path
             id="path50"
             style="fill:#5475b8;fill-opacity:1;fill-rule:nonzero;stroke:none"
             d="m 0,0 c -14.983,0 -37.087,-10.207 -60.194,-27.794 5.247,-3.994 10.54,-8.363 15.818,-13.085 20.51,-1.141 39.068,-4.469 53.874,-9.318 10.272,20.276 12.603,37.189 4.484,45.308 C 10.666,-1.573 5.88,0 0,0 m -129.885,-107.932 c -1.772,-3.499 -3.308,-6.896 -4.594,-10.167 3.431,-1.123 5.91,-4.351 5.91,-8.158 0,-4.74 -3.843,-8.583 -8.583,-8.583 -0.622,0 -1.229,0.067 -1.814,0.192 -0.969,-8.008 0.452,-14.446 4.598,-18.592 3.316,-3.316 8.102,-4.889 13.982,-4.889 14.982,0 37.087,10.207 60.193,27.794 -5.247,3.994 -10.54,8.363 -15.818,13.085 -20.506,1.142 -39.07,4.47 -53.874,9.318" /></g><g
           transform="translate(131.9426,385.3725)"
           id="g52"><path
             id="path54"
             style="fill:#7b5ba4;fill-opacity:1;fill-rule:nonzero;stroke:none"
             d="m 0,0 c -5.882,0 -10.665,-1.572 -13.982,-4.889 -8.119,-8.119 -5.788,-25.032 4.484,-45.308 14.804,4.848 33.367,8.176 53.873,9.318 5.279,4.722 10.571,9.091 15.818,13.085 -2.991,2.276 -5.971,4.433 -8.915,6.456 -1.532,-2.344 -4.18,-3.894 -7.19,-3.894 -4.74,0 -8.582,3.843 -8.582,8.583 0,1.609 0.442,3.114 1.212,4.401 C 22.582,-4.345 9.775,0 0,0 m 129.885,-107.932 c -14.807,-4.849 -33.365,-8.177 -53.875,-9.318 -5.278,-4.722 -10.57,-9.091 -15.817,-13.085 23.104,-17.585 45.211,-27.794 60.193,-27.794 5.883,0 10.666,1.572 13.983,4.889 8.118,8.119 5.788,25.032 -4.484,45.308" /></g><g
           transform="translate(192.1353,357.5782)"
           id="g56"><path
             id="path58"
             style="fill:#4a4a9c;fill-opacity:1;fill-rule:nonzero;stroke:none"
             d="m 0,0 c -5.247,-3.993 -10.539,-8.363 -15.817,-13.084 5.16,0.287 10.439,0.436 15.817,0.436 5.375,0 10.66,-0.149 15.818,-0.436 C 10.539,-8.363 5.247,-3.993 0,0 m -15.817,-89.456 c 5.278,-4.721 10.571,-9.091 15.817,-13.084 5.247,3.993 10.54,8.362 15.818,13.084 C 10.66,-89.743 5.375,-89.892 0,-89.892 c -5.378,0 -10.657,0.149 -15.817,0.436" /></g><g
           transform="translate(261.8272,335.175)"
           id="g60"><path
             id="path62"
             style="fill:#009fde;fill-opacity:1;fill-rule:nonzero;stroke:none"
             d="m 0,0 c -4.614,-9.107 -10.831,-18.895 -18.421,-28.867 7.59,-9.972 13.807,-19.76 18.421,-28.867 21.601,7.074 35.208,17.385 35.208,28.867 0,5.862 -3.547,11.42 -9.895,16.397 -1.542,-2.288 -4.157,-3.793 -7.124,-3.793 -4.739,0 -8.582,3.842 -8.582,8.582 0,1.338 0.306,2.604 0.852,3.732 C 7.23,-2.543 3.735,-1.223 0,0 m -139.383,0 c -21.601,-7.074 -35.208,-17.386 -35.208,-28.867 0,-11.482 13.607,-21.793 35.208,-28.867 4.614,9.107 10.831,18.895 18.421,28.867 -7.59,9.972 -13.807,19.76 -18.421,28.867" /></g><g
           transform="translate(207.9529,344.4938)"
           id="g64"><path
             id="path66"
             style="fill:#0069af;fill-opacity:1;fill-rule:nonzero;stroke:none"
             d="m 0,0 c 3.85,-3.444 7.692,-7.075 11.492,-10.876 9.012,-9.011 17.055,-18.237 23.961,-27.31 7.59,9.972 13.807,19.76 18.421,28.867 C 39.068,-4.47 20.51,-1.142 0,0 m -67.088,-38.186 c -7.59,-9.972 -13.807,-19.76 -18.421,-28.867 14.804,-4.848 33.368,-8.176 53.874,-9.319 -3.849,3.444 -7.692,7.075 -11.492,10.876 -9.012,9.011 -17.054,18.237 -23.961,27.31" /></g><g
           transform="translate(176.3179,344.4938)"
           id="g68"><path
             id="path70"
             style="fill:#2c53a0;fill-opacity:1;fill-rule:nonzero;stroke:none"
             d="m 0,0 c -20.506,-1.142 -39.07,-4.47 -53.874,-9.319 4.614,-9.107 10.831,-18.895 18.421,-28.867 6.907,9.073 14.949,18.299 23.961,27.31 C -7.692,-7.075 -3.85,-3.444 0,0 m 67.088,-38.186 c -6.906,-9.073 -14.949,-18.299 -23.961,-27.31 -3.8,-3.801 -7.642,-7.432 -11.492,-10.876 20.51,1.142 39.068,4.47 53.874,9.319 -4.613,9.107 -10.831,18.895 -18.421,28.867" /></g><g
           transform="translate(192.1358,344.93)"
           id="g72"><path
             id="path74"
             style="fill:#374898;fill-opacity:1;fill-rule:nonzero;stroke:none"
             d="m 0,0 c -5.378,0 -10.657,-0.149 -15.818,-0.436 -3.849,-3.444 -7.692,-7.075 -11.492,-10.876 -9.012,-9.011 -17.054,-18.237 -23.961,-27.31 6.907,-9.073 14.949,-18.299 23.961,-27.31 3.8,-3.801 7.643,-7.432 11.492,-10.876 5.161,-0.287 10.44,-0.436 15.818,-0.436 5.375,0 10.66,0.149 15.817,0.436 3.85,3.444 7.692,7.075 11.493,10.876 9.011,9.011 17.054,18.237 23.96,27.31 -6.906,9.073 -14.949,18.299 -23.96,27.31 C 23.509,-7.511 19.667,-3.88 15.817,-0.436 10.66,-0.149 5.375,0 0,0" /></g><g
           transform="translate(115.1771,267.698)"
           id="g76"><path
             id="path78"
             style="fill:#7b5ba4;fill-opacity:1;fill-rule:nonzero;stroke:none"
             d="m 0,0 c -4.74,0 -8.583,-3.843 -8.583,-8.583 0,-4.117 2.901,-7.558 6.769,-8.39 0.602,4.969 2.124,10.544 4.486,16.549 C 1.831,-0.149 0.933,0 0,0" /></g><g
           transform="translate(117.8495,267.2737)"
           id="g80"><path
             id="path82"
             style="fill:#4a4a9c;fill-opacity:1;fill-rule:nonzero;stroke:none"
             d="m 0,0 c -2.362,-6.005 -3.885,-11.58 -4.486,-16.549 0.585,-0.126 1.191,-0.192 1.814,-0.192 4.74,0 8.582,3.843 8.582,8.582 C 5.91,-4.351 3.432,-1.123 0,0" /></g><g
           transform="translate(176.0308,377.3065)"
           id="g84"><path
             id="path86"
             style="fill:#009fde;fill-opacity:1;fill-rule:nonzero;stroke:none"
             d="m 0,0 c -3.131,0 -5.871,-1.677 -7.37,-4.182 4.727,-2.643 9.599,-5.681 14.56,-9.09 0.881,1.348 1.393,2.959 1.393,4.689 C 8.583,-3.843 4.74,0 0,0" /></g><g
           transform="translate(168.6608,373.1244)"
           id="g88"><path
             id="path90"
             style="fill:#2c53a0;fill-opacity:1;fill-rule:nonzero;stroke:none"
             d="m 0,0 c -0.77,-1.287 -1.213,-2.792 -1.213,-4.401 0,-4.74 3.843,-8.583 8.583,-8.583 3.01,0 5.658,1.55 7.19,3.894 C 9.599,-5.68 4.727,-2.643 0,0" /></g><g
           transform="translate(280.0167,336.0771)"
           id="g92"><path
             id="path94"
             style="fill:#5475b8;fill-opacity:1;fill-rule:nonzero;stroke:none"
             d="m 0,0 c -3.403,0 -6.343,-1.98 -7.731,-4.851 5.908,-2.574 10.92,-5.436 14.854,-8.521 0.922,1.368 1.46,3.016 1.46,4.789 C 8.583,-3.843 4.74,0 0,0" /></g><g
           transform="translate(272.2859,331.226)"
           id="g96"><path
             id="path98"
             style="fill:#0069af;fill-opacity:1;fill-rule:nonzero;stroke:none"
             d="m 0,0 c -0.546,-1.128 -0.852,-2.394 -0.852,-3.732 0,-4.74 3.843,-8.582 8.583,-8.582 2.967,0 5.582,1.505 7.123,3.793 C 10.919,-5.436 5.908,-2.574 0,0" /></g><g
           transform="translate(200.5635,295.2025)"
           id="g100"><path
             id="path102"
             style="fill:#ffffff;fill-opacity:1;fill-rule:nonzero;stroke:none"
             d="m 0,0 c 0,4.486 -3.988,5.582 -11.264,7.276 -7.775,1.795 -16.348,5.483 -16.348,15.451 0,8.871 7.776,16.049 19.539,16.049 8.273,0 17.841,-2.393 17.841,-5.782 0,-0.499 -0.1,-0.897 -0.298,-1.396 L 8.074,28.509 C 7.576,27.512 6.579,26.913 5.583,26.913 c -0.399,0 -0.699,0 -1.097,0.2 -3.289,1.396 -8.474,2.392 -12.461,2.392 -4.884,0 -8.572,-2.791 -8.572,-5.981 0,-9.37 27.911,-4.286 27.911,-22.926 0,-9.369 -8.474,-16.547 -20.834,-16.547 -8.572,0 -19.039,2.891 -19.039,6.38 0,0.398 0.1,0.798 0.3,1.296 l 1.594,3.389 c 0.4,0.897 1.495,1.395 2.492,1.395 0.399,0 0.698,-0.099 1.097,-0.199 3.689,-1.595 9.37,-2.991 13.756,-2.991 C -3.091,-6.679 0,-3.29 0,0" /></g></g></g></g></svg>