<svg xmlns="http://www.w3.org/2000/svg" viewBox="0 0 823.37 210.84">
  <title>Asset 2</title>
  <g id="Layer_2" data-name="Layer 2">
    <g id="svg2">
      <g id="g10">
        <g id="g12">
          <g id="g14">
            <g id="g20">
              <path id="path22" d="M346.52,97.52c-8.07-2.35-15-4.38-15-9.51,0-4.43,5.36-8,12-8a53.68,53.68,0,0,1,18.39,3.51,4.17,4.17,0,0,0,2.11.41,5.32,5.32,0,0,0,4.68-3l2.13-4.71a6.32,6.32,0,0,0,.52-2.48c0-6.36-16.25-9.75-28-9.75-17.7,0-30.55,10.63-30.55,25.27,0,12.42,8.34,20.38,25.49,24.34,11,2.56,16.25,4.05,16.25,10,0,4.52-4.47,9.09-13,9.09-7,0-15.46-2.3-20.55-4.49l-.28-.07a6,6,0,0,0-1.62-.26,5.1,5.1,0,0,0-4.68,2.69l-2.43,5.18a6.17,6.17,0,0,0-.53,2.34c0,6.5,17.64,10.65,29.79,10.65,18.83,0,32.5-10.94,32.5-26,0-17.25-15.06-21.63-27.16-25.16" style="fill: #ffffff"/>
            </g>
            <g id="g24">
              <path id="path26" d="M450.21,124a6.27,6.27,0,0,0-7.47-.3c-6.43,5.42-12.43,8.05-18.34,8.05-13.05,0-20.85-9.54-20.85-25.52,0-15.65,8-25.37,20.85-25.37,5.79,0,11.79,2.68,18.47,8.3a7.35,7.35,0,0,0,3.53.9,5.23,5.23,0,0,0,3.93-1.56l4.32-5.07A5,5,0,0,0,456,79.87a5.68,5.68,0,0,0-1.69-4.06c-8.8-8-18.58-11.87-29.91-11.87-24.88,0-39.74,15.81-39.74,42.3s14.86,42.45,39.74,42.45c11.27,0,21.1-3.88,30.1-11.9a5.21,5.21,0,0,0,1.5-3.72c0-2.42-2.3-5.05-4.33-7.38-.47-.54-.93-1.06-1.46-1.68" style="fill: #ffffff"/>
            </g>
            <g id="g28">
              <path id="path30" d="M498.24,132.67c-8.29,0-12.86-3.66-12.86-10.3,0-8.57,9.26-12.56,29.14-12.56h2v5.93c0,10.18-11,16.93-18.29,16.93m5.27-68.72c-14.76,0-30.69,4-30.69,10.5a3.56,3.56,0,0,0,.27,1.27l2.4,5.81A4.59,4.59,0,0,0,479.71,84,19.58,19.58,0,0,0,484,83c4.06-1.21,10.2-3,16.91-3,10.13,0,15.27,4.88,15.27,14.52V96h-3.52c-21.45,0-46.07,3.13-46.07,27.53,0,14.55,11.89,25.12,28.28,25.12,8.62,0,18-4.85,22.36-11.42v4.09a5.22,5.22,0,0,0,5.37,5.53h7.08a5.19,5.19,0,0,0,5.38-5.22V96.9c0-24.3-16.32-33-31.6-33" style="fill: #ffffff"/>
            </g>
            <g id="g32">
              <path id="path34" d="M601.37,138.78l-1.81-5.29a5.23,5.23,0,0,0-6.41-3.32,32.65,32.65,0,0,1-9.6,1.45c-6.1,0-8.94-3.32-8.94-10.45V80.73h19.79a5.29,5.29,0,0,0,5.22-5.22V71a5.23,5.23,0,0,0-5.22-5.23H574.6V49.88a5.23,5.23,0,0,0-5.22-5.22h-8.14a5.25,5.25,0,0,0-5.38,5.22V65.76h-7A5.24,5.24,0,0,0,543.5,71V75.5a5.37,5.37,0,0,0,5.37,5.22h7v40.89c0,17.21,10,27.08,27.53,27.08a34.36,34.36,0,0,0,15.19-3.41,5.4,5.4,0,0,0,2.79-6.51" style="fill: #ffffff"/>
            </g>
            <g id="g36">
              <path id="path38" d="M666.89,138.78l-1.81-5.29a5.23,5.23,0,0,0-6.41-3.32,32.65,32.65,0,0,1-9.6,1.45c-6.1,0-8.94-3.32-8.94-10.45V80.73h19.79a5.29,5.29,0,0,0,5.22-5.22V71a5.23,5.23,0,0,0-5.22-5.23H640.12V49.88a5.23,5.23,0,0,0-5.22-5.22h-8.14a5.25,5.25,0,0,0-5.38,5.22V65.76h-7A5.24,5.24,0,0,0,609,71V75.5a5.37,5.37,0,0,0,5.37,5.22h7v40.89c0,17.21,10,27.08,27.53,27.08a34.36,34.36,0,0,0,15.19-3.41,5.4,5.4,0,0,0,2.79-6.51" style="fill: #ffffff"/>
            </g>
            <g id="g40">
              <path id="path42" d="M715.7,79.67c8.51,0,17.66,5.79,18.12,18.49H695.63c2.09-11.27,9.86-18.49,20.06-18.49m37,26.88c0-27.07-13.39-42.6-36.72-42.6-24.23,0-39.89,16.84-39.89,42.9s15.42,41.85,41.25,41.85c11.13,0,31-4.06,31-12.16,0-3.19-2.74-9.29-7-9.29a4.19,4.19,0,0,0-2.12.41,52.38,52.38,0,0,1-22.15,5,22.42,22.42,0,0,1-22-20.75h52.31a5.45,5.45,0,0,0,5.37-5.37" style="fill: #ffffff"/>
            </g>
            <g id="g44">
              <path id="path46" d="M819.62,66.19a21.36,21.36,0,0,0-9.85-2.25A26.76,26.76,0,0,0,788,76h-.25V71a5.25,5.25,0,0,0-5.37-5.23H775A5.23,5.23,0,0,0,769.73,71v70.68a5.29,5.29,0,0,0,5.22,5.22h8.14a5.37,5.37,0,0,0,5.37-5.22v-31.8c0-18.63,9.81-28.38,19.49-28.38a18.72,18.72,0,0,1,7.57,2c2.42,1.11,5.6-.91,6.38-4l1.36-6.94c.51-2.71-.85-5-3.64-6.33" style="fill: #ffffff"/>
            </g>
            <g id="g48">
              <path id="path50" d="M220.12,0c-20,0-49.45,13.61-80.26,37.06,7,5.33,14.05,11.15,21.09,17.45,27.35,1.52,52.09,6,71.83,12.42,13.7-27,16.8-49.59,6-60.41C234.34,2.1,228,0,220.12,0M46.94,143.91q-3.54,7-6.13,13.56a11.45,11.45,0,0,1-6,22.06c-1.29,10.68.6,19.26,6.13,24.79,4.42,4.42,10.8,6.52,18.64,6.52,20,0,49.45-13.61,80.26-37.06-7-5.33-14.05-11.15-21.09-17.45-27.34-1.52-52.09-6-71.83-12.43" style="fill: #f99e33"/>
            </g>
            <g id="g52">
              <path id="path54" d="M59.61,0C51.77,0,45.39,2.1,41,6.52c-10.83,10.83-7.72,33.38,6,60.41C66.68,60.47,91.43,56,118.78,54.51c7-6.3,14.09-12.12,21.09-17.45q-6-4.55-11.89-8.61a11.45,11.45,0,0,1-19.41-12.12C89.72,5.79,72.64,0,59.61,0M232.79,143.91C213,150.37,188.3,154.81,161,156.33c-7,6.3-14.09,12.12-21.09,17.45,30.81,23.45,60.28,37.06,80.26,37.06,7.84,0,14.22-2.1,18.64-6.52,10.82-10.83,7.72-33.38-6-60.41" style="fill: #e66f38"/>
            </g>
            <g id="g56">
              <path id="path58" d="M139.87,37.06c-7,5.32-14.05,11.15-21.09,17.45q10.32-.57,21.09-.58c7.17,0,14.21.2,21.09.58-7-6.29-14.09-12.12-21.09-17.45M118.78,156.33c7,6.29,14.09,12.12,21.09,17.45,7-5.32,14.05-11.15,21.09-17.45-6.88.38-13.92.58-21.09.58s-14.21-.2-21.09-.58" style="fill: #e45739"/>
            </g>
            <g id="g60">
              <path id="path62" d="M232.79,66.93a254.9,254.9,0,0,1-24.56,38.49,254.9,254.9,0,0,1,24.56,38.49c28.8-9.43,46.94-23.18,46.94-38.49,0-7.82-4.73-15.23-13.19-21.86A11.45,11.45,0,0,1,246.73,72.2c-4.31-1.87-9-3.63-13.95-5.27m-185.84,0C18.14,76.36,0,90.11,0,105.42s18.14,29.06,46.94,38.49a254.9,254.9,0,0,1,24.56-38.49A254.9,254.9,0,0,1,46.94,66.93" style="fill: #fec02e"/>
            </g>
            <g id="g64">
              <path id="path66" d="M161,54.5q7.7,6.89,15.32,14.5a361.38,361.38,0,0,1,31.95,36.41,254.9,254.9,0,0,0,24.56-38.49C213,60.46,188.3,56,161,54.5M71.5,105.42a254.9,254.9,0,0,0-24.56,38.49c19.74,6.46,44.49,10.9,71.83,12.43q-7.7-6.89-15.32-14.5A361.55,361.55,0,0,1,71.5,105.42" style="fill: #f58635"/>
            </g>
            <g id="g68">
              <path id="path70" d="M118.78,54.5c-27.34,1.52-52.09,6-71.83,12.43A254.9,254.9,0,0,0,71.5,105.42,361.55,361.55,0,0,1,103.45,69q7.6-7.6,15.32-14.5m89.45,50.91a361.38,361.38,0,0,1-31.95,36.41q-7.6,7.6-15.32,14.5c27.35-1.52,52.09-6,71.83-12.43a254.79,254.79,0,0,0-24.56-38.49" style="fill: #e56138"/>
            </g>
            <g id="g72">
              <path id="path74" d="M139.87,53.92q-10.76,0-21.09.58-7.7,6.89-15.32,14.5A361.55,361.55,0,0,0,71.5,105.42a361.55,361.55,0,0,0,31.95,36.41q7.6,7.6,15.32,14.5,10.32.57,21.09.58c7.17,0,14.21-.2,21.09-.58q7.7-6.89,15.32-14.5a361.53,361.53,0,0,0,31.95-36.41A361.53,361.53,0,0,0,176.28,69q-7.6-7.6-15.32-14.5c-6.88-.38-13.92-.58-21.09-.58" style="fill: #e34f39"/>
            </g>
            <g id="g76">
              <path id="path78" d="M37.25,156.9a11.44,11.44,0,0,0-2.42,22.63,91.51,91.51,0,0,1,6-22.07,11.44,11.44,0,0,0-3.56-.57" style="fill: #e66f38"/>
            </g>
            <g id="g80">
              <path id="path82" d="M40.82,157.47a91.45,91.45,0,0,0-6,22.07,11.45,11.45,0,0,0,6-22.07" style="fill: #e45739"/>
            </g>
            <g id="g84">
              <path id="path86" d="M118.39,10.75a11.44,11.44,0,0,0-9.83,5.58c6.3,3.52,12.8,7.57,19.41,12.12a11.45,11.45,0,0,0-9.59-17.7" style="fill: #fec02e"/>
            </g>
            <g id="g88">
              <path id="path90" d="M108.57,16.33A11.45,11.45,0,0,0,128,28.45c-6.61-4.55-13.11-8.6-19.41-12.12" style="fill: #e56138"/>
            </g>
            <g id="g92">
              <path id="path94" d="M257,65.73a11.44,11.44,0,0,0-10.31,6.47,91.42,91.42,0,0,1,19.81,11.36A11.44,11.44,0,0,0,257,65.73" style="fill: #f99e33"/>
            </g>
            <g id="g96">
              <path id="path98" d="M246.73,72.2a11.45,11.45,0,0,0,19.81,11.36A91.45,91.45,0,0,0,246.73,72.2" style="fill: #f58635"/>
            </g>
            <g id="g100">
              <path id="path102" d="M151.1,120.23c0-6-5.32-7.44-15-9.7-10.37-2.39-21.8-7.31-21.8-20.6,0-11.83,10.37-21.4,26.05-21.4,11,0,23.79,3.19,23.79,7.71a4.72,4.72,0,0,1-.4,1.86l-1.86,4.12a3.78,3.78,0,0,1-3.32,2.13,2.85,2.85,0,0,1-1.46-.27,48,48,0,0,0-16.61-3.19c-6.51,0-11.43,3.72-11.43,8,0,12.49,37.21,5.71,37.21,30.57,0,12.49-11.3,22.06-27.78,22.06-11.43,0-25.39-3.85-25.39-8.51a4.58,4.58,0,0,1,.4-1.73l2.13-4.52a3.64,3.64,0,0,1,3.32-1.86,5.64,5.64,0,0,1,1.46.27,52,52,0,0,0,18.34,4c8.24,0,12.36-4.52,12.36-8.91" style="fill: #fff"/>
            </g>
          </g>
        </g>
      </g>
    </g>
  </g>
</svg>
